<svg width="25" height="19" viewBox="0 0 25 19" fill="none" xmlns="http://www.w3.org/2000/svg">
<path d="M8.84468 17.9231L8.84466 17.9231L0.719655 9.7981C0.426792 9.50524 0.426766 9.03035 0.719673 8.73742L2.48739 6.96966L2.4874 6.96964C2.78027 6.67674 3.25516 6.67674 3.54803 6.96964L3.54805 6.96966L9.02145 12.443L9.375 12.7966L9.72855 12.443L21.452 0.719656L21.0985 0.366157L21.452 0.719655C21.7448 0.426782 22.2197 0.426782 22.5126 0.719655L24.2803 2.48743L24.6339 2.13388L24.2803 2.48743C24.5732 2.78029 24.5732 3.25518 24.2803 3.54812L9.90535 17.9231C9.61242 18.216 9.13754 18.216 8.84468 17.9231Z" fill="#29BD11" stroke="#7FFE6A"/>
</svg>
